<svg width="1792" height="1830" viewBox="0 0 1792 1830" fill="none" xmlns="http://www.w3.org/2000/svg">
<g clip-path="url(#clip0_1140_63)">
<path d="M1633.1 1065.94C1607.79 1074.64 1589.6 1133.94 1577.74 1156.94L1576.95 1158.46C1576.23 1159.83 1575.12 1160.94 1573.74 1161.65C1572.37 1162.36 1570.81 1162.63 1569.28 1162.43C1567.75 1162.22 1566.32 1161.54 1565.19 1160.49C1564.06 1159.44 1563.27 1158.07 1562.95 1156.56C1556.65 1128.44 1553.95 1100.14 1580.09 1077.83C1623.59 1040.64 1631.5 1006.62 1629.09 967.06C1627.57 941.79 1637.09 921.57 1644.25 910.27C1651.98 897.877 1658.7 884.886 1664.36 871.42C1769.01 624.97 1601.36 694.95 1586.36 754.23C1575.68 796.56 1591.9 822.23 1554.99 851.81C1508.17 889.28 1504.37 929.35 1505.42 947.81C1506.47 966.27 1522.82 993.7 1486.42 1029.56C1450.02 1065.42 1448.99 1106.56 1462.7 1148.24C1476.41 1189.92 1450.57 1222.61 1436.33 1239.49L1436.26 1239.58C1435.66 1240.32 1434.88 1240.9 1433.99 1241.24C1433.1 1241.58 1432.13 1241.67 1431.19 1241.52C1430.25 1241.36 1429.36 1240.96 1428.63 1240.35C1427.9 1239.74 1427.34 1238.95 1427.01 1238.05C1420.64 1220.51 1407.2 1212.97 1397.84 1208.9C1385.72 1203.62 1372.53 1179.9 1362.52 1146.66C1352.51 1113.42 1286.59 1083.37 1260.75 1097.61C1234.91 1111.85 1219.63 1173.61 1240.75 1204.68C1261.87 1235.75 1367.82 1264.81 1362.55 1310.17C1357.28 1355.53 1435.31 1382.43 1435.31 1382.43C1440.15 1381.44 1444.64 1379.17 1448.31 1375.86C1468.82 1388.13 1499.43 1400.15 1516.74 1376.86C1519.31 1373.41 1521.89 1369.52 1524.45 1365.28C1531.62 1364.86 1542.45 1360.86 1558.66 1350.75C1619.56 1312.75 1603.74 1281.13 1613.23 1254.23C1622.72 1227.33 1663.85 1186.23 1663.85 1186.23C1717.73 1101.54 1658.41 1057.24 1633.1 1065.94Z" fill="#EF3254"/>
<path d="M1485.22 1350.05C1484.63 1350.05 1484.06 1349.82 1483.64 1349.4C1483.22 1348.99 1482.98 1348.42 1482.97 1347.83C1480.41 1188.5 1522.97 1038.73 1559.1 941.14C1598.25 835.42 1638.56 766.42 1638.96 765.73C1639.1 765.458 1639.3 765.218 1639.53 765.024C1639.77 764.83 1640.05 764.687 1640.34 764.602C1640.64 764.518 1640.95 764.494 1641.25 764.533C1641.55 764.571 1641.85 764.672 1642.11 764.827C1642.37 764.983 1642.6 765.19 1642.79 765.437C1642.97 765.685 1643.1 765.966 1643.17 766.265C1643.23 766.563 1643.24 766.873 1643.19 767.175C1643.13 767.477 1643.02 767.764 1642.85 768.02C1642.45 768.7 1602.31 837.43 1563.29 942.8C1527.29 1040.01 1484.93 1189.17 1487.48 1347.8C1487.49 1348.1 1487.43 1348.39 1487.32 1348.67C1487.21 1348.94 1487.05 1349.19 1486.85 1349.41C1486.64 1349.62 1486.39 1349.79 1486.12 1349.91C1485.85 1350.02 1485.56 1350.09 1485.26 1350.09L1485.22 1350.05Z" fill="white"/>
<path d="M1423.44 1355C1422.91 1355 1422.4 1354.81 1421.99 1354.47C1421.59 1354.12 1421.31 1353.65 1421.22 1353.13C1398.22 1220.97 1262.98 1134.26 1261.62 1133.4C1261.11 1133.08 1260.76 1132.57 1260.63 1131.99C1260.49 1131.41 1260.6 1130.8 1260.92 1130.29C1261.24 1129.78 1261.75 1129.43 1262.33 1129.3C1262.91 1129.16 1263.52 1129.27 1264.03 1129.59C1265.41 1130.46 1402.29 1218.2 1425.67 1352.35C1425.77 1352.94 1425.63 1353.55 1425.29 1354.04C1424.94 1354.52 1424.42 1354.86 1423.83 1354.96C1423.7 1354.99 1423.57 1355 1423.44 1355Z" fill="white"/>
<path d="M1518.59 1346.34C1518.38 1346.34 1518.18 1346.32 1517.98 1346.26C1517.69 1346.18 1517.43 1346.05 1517.19 1345.87C1516.96 1345.68 1516.77 1345.46 1516.62 1345.2C1516.47 1344.94 1516.38 1344.66 1516.35 1344.37C1516.31 1344.07 1516.33 1343.78 1516.41 1343.49C1542.17 1250.24 1614.87 1149.71 1615.61 1148.71C1615.96 1148.23 1616.49 1147.9 1617.08 1147.81C1617.67 1147.72 1618.27 1147.86 1618.75 1148.22C1619.24 1148.57 1619.56 1149.1 1619.65 1149.68C1619.75 1150.27 1619.6 1150.88 1619.25 1151.36C1618.53 1152.36 1546.25 1252.24 1520.76 1344.69C1520.63 1345.16 1520.34 1345.58 1519.95 1345.88C1519.56 1346.18 1519.08 1346.34 1518.59 1346.34Z" fill="white"/>
<path d="M1501.56 1161.77C1501.12 1161.77 1500.69 1161.64 1500.32 1161.4C1499.95 1161.15 1499.66 1160.81 1499.49 1160.4C1499.31 1160 1499.26 1159.55 1499.34 1159.12C1499.42 1158.68 1499.62 1158.28 1499.92 1157.96C1522.75 1133.83 1536.92 1097.37 1537.06 1096.96C1537.15 1096.67 1537.3 1096.39 1537.51 1096.16C1537.71 1095.93 1537.96 1095.74 1538.23 1095.6C1538.51 1095.47 1538.81 1095.39 1539.12 1095.38C1539.43 1095.37 1539.74 1095.42 1540.03 1095.53C1540.32 1095.64 1540.58 1095.81 1540.8 1096.02C1541.02 1096.24 1541.19 1096.5 1541.31 1096.78C1541.43 1097.07 1541.48 1097.38 1541.48 1097.69C1541.47 1098 1541.4 1098.3 1541.27 1098.58C1540.69 1100.1 1526.64 1136.24 1503.2 1161.01C1502.99 1161.24 1502.74 1161.43 1502.46 1161.56C1502.18 1161.69 1501.87 1161.76 1501.56 1161.77Z" fill="white"/>
<path d="M1496.62 1201.32C1496.25 1201.32 1495.88 1201.24 1495.55 1201.06C1495.22 1200.89 1494.94 1200.63 1494.73 1200.32C1494.41 1199.82 1494.29 1199.21 1494.42 1198.62C1494.54 1198.04 1494.89 1197.53 1495.39 1197.2C1523.47 1179.03 1534.8 1147.2 1534.91 1146.86C1535.01 1146.58 1535.16 1146.32 1535.36 1146.1C1535.55 1145.88 1535.79 1145.7 1536.06 1145.57C1536.32 1145.44 1536.61 1145.37 1536.91 1145.35C1537.2 1145.33 1537.5 1145.37 1537.78 1145.47C1538.06 1145.57 1538.32 1145.72 1538.54 1145.92C1538.76 1146.11 1538.94 1146.35 1539.07 1146.62C1539.2 1146.88 1539.27 1147.17 1539.29 1147.47C1539.31 1147.76 1539.27 1148.06 1539.17 1148.34C1538.69 1149.7 1527.17 1181.98 1497.84 1200.99C1497.47 1201.21 1497.05 1201.33 1496.62 1201.32Z" fill="white"/>
<path d="M1537.8 1294.16C1537.27 1294.16 1536.76 1293.97 1536.35 1293.63C1535.95 1293.29 1535.68 1292.81 1535.59 1292.29C1535.5 1291.77 1535.59 1291.23 1535.85 1290.77C1536.12 1290.32 1536.53 1289.96 1537.03 1289.78C1558.63 1281.88 1593.11 1233.46 1593.45 1232.97C1593.61 1232.71 1593.83 1232.48 1594.08 1232.31C1594.33 1232.13 1594.62 1232.01 1594.92 1231.95C1595.23 1231.89 1595.54 1231.89 1595.84 1231.95C1596.14 1232.02 1596.43 1232.14 1596.68 1232.32C1596.93 1232.5 1597.14 1232.73 1597.3 1232.99C1597.46 1233.25 1597.57 1233.55 1597.61 1233.85C1597.65 1234.16 1597.63 1234.47 1597.55 1234.77C1597.47 1235.06 1597.32 1235.34 1597.13 1235.58C1595.69 1237.58 1561.49 1285.64 1538.58 1294.02C1538.33 1294.11 1538.07 1294.16 1537.8 1294.16Z" fill="white"/>
<path d="M1324.6 1183.19C1324.51 1183.2 1324.41 1183.2 1324.32 1183.19C1324.02 1183.16 1323.73 1183.07 1323.47 1182.93C1323.21 1182.78 1322.98 1182.59 1322.79 1182.35C1322.61 1182.12 1322.47 1181.85 1322.39 1181.56C1322.31 1181.28 1322.28 1180.98 1322.32 1180.68C1326.43 1147.29 1305.32 1123.03 1305.13 1122.79C1304.93 1122.57 1304.78 1122.31 1304.68 1122.03C1304.59 1121.75 1304.55 1121.45 1304.56 1121.16C1304.58 1120.86 1304.66 1120.57 1304.78 1120.31C1304.91 1120.04 1305.09 1119.8 1305.31 1119.6C1305.54 1119.41 1305.79 1119.26 1306.07 1119.16C1306.35 1119.06 1306.65 1119.02 1306.95 1119.04C1307.24 1119.06 1307.53 1119.13 1307.8 1119.26C1308.06 1119.39 1308.3 1119.57 1308.5 1119.79C1309.43 1120.79 1331.15 1145.79 1326.8 1181.22C1326.73 1181.76 1326.47 1182.25 1326.07 1182.61C1325.66 1182.98 1325.14 1183.18 1324.6 1183.19Z" fill="white"/>
<path d="M1390.91 1269.3C1390.61 1269.3 1390.32 1269.24 1390.04 1269.13C1352.28 1253.46 1312.2 1219.99 1311.8 1219.65C1311.57 1219.46 1311.39 1219.23 1311.25 1218.96C1311.11 1218.7 1311.03 1218.41 1311 1218.12C1310.98 1217.82 1311.01 1217.53 1311.1 1217.25C1311.19 1216.96 1311.33 1216.7 1311.53 1216.47C1311.72 1216.25 1311.95 1216.06 1312.21 1215.93C1312.47 1215.79 1312.76 1215.71 1313.06 1215.68C1313.35 1215.65 1313.65 1215.69 1313.93 1215.78C1314.21 1215.87 1314.47 1216.01 1314.7 1216.2C1315.09 1216.53 1354.7 1249.56 1391.77 1264.96C1392.25 1265.16 1392.64 1265.52 1392.88 1265.98C1393.13 1266.44 1393.2 1266.97 1393.1 1267.48C1393 1267.99 1392.73 1268.45 1392.33 1268.78C1391.93 1269.11 1391.43 1269.29 1390.91 1269.3Z" fill="white"/>
<path d="M1549.79 973.78C1549.34 973.78 1548.91 973.648 1548.54 973.401C1548.17 973.153 1547.88 972.802 1547.71 972.39C1534.13 939.92 1542.98 898.66 1543.36 896.92C1543.43 896.631 1543.55 896.358 1543.72 896.116C1543.89 895.874 1544.11 895.669 1544.36 895.511C1544.61 895.353 1544.89 895.246 1545.18 895.196C1545.47 895.146 1545.77 895.154 1546.06 895.22C1546.35 895.286 1546.62 895.408 1546.86 895.579C1547.11 895.75 1547.31 895.967 1547.47 896.218C1547.63 896.469 1547.73 896.748 1547.78 897.04C1547.83 897.332 1547.83 897.631 1547.76 897.92C1547.67 898.33 1538.85 939.54 1551.87 970.68C1551.99 970.956 1552.06 971.253 1552.06 971.555C1552.07 971.856 1552.01 972.155 1551.9 972.435C1551.78 972.714 1551.62 972.969 1551.4 973.182C1551.19 973.396 1550.94 973.565 1550.66 973.68C1550.38 973.766 1550.08 973.8 1549.79 973.78Z" fill="white"/>
<path d="M1350.75 1349.58H1605.81V1455C1605.81 1467.07 1603.43 1479.03 1598.81 1490.18C1594.19 1501.34 1587.42 1511.47 1578.88 1520.01C1570.34 1528.55 1560.21 1535.32 1549.05 1539.94C1537.9 1544.56 1525.94 1546.94 1513.87 1546.94H1442.7C1430.63 1546.94 1418.67 1544.56 1407.52 1539.94C1396.36 1535.32 1386.23 1528.55 1377.69 1520.01C1369.15 1511.47 1362.38 1501.34 1357.76 1490.18C1353.14 1479.03 1350.76 1467.07 1350.76 1455V1349.58H1350.75Z" fill="white"/>
<path d="M1513.87 1549.23H1442.69C1417.72 1549.2 1393.77 1539.27 1376.12 1521.61C1358.46 1503.95 1348.53 1480 1348.5 1455.03V1349.58C1348.5 1348.98 1348.74 1348.41 1349.16 1347.99C1349.58 1347.56 1350.15 1347.32 1350.75 1347.32H1605.82C1606.42 1347.32 1606.99 1347.56 1607.41 1347.99C1607.83 1348.41 1608.07 1348.98 1608.07 1349.58V1455C1608.05 1479.98 1598.12 1503.93 1580.46 1521.6C1562.8 1539.26 1538.85 1549.2 1513.87 1549.23ZM1353 1351.83V1455C1353.02 1478.78 1362.48 1501.58 1379.29 1518.39C1396.11 1535.21 1418.9 1544.66 1442.68 1544.69H1513.86C1537.64 1544.66 1560.44 1535.21 1577.25 1518.39C1594.07 1501.58 1603.52 1478.78 1603.55 1455V1351.8L1353 1351.83Z" fill="#EF3254"/>
<path d="M798.08 461C797.753 460.999 797.43 460.926 797.133 460.788C796.837 460.649 796.574 460.448 796.363 460.198C796.151 459.948 795.997 459.655 795.91 459.339C795.824 459.024 795.806 458.693 795.86 458.37L812.37 360.28L794.88 357.34C780.44 354.905 767.558 346.835 759.065 334.905C750.573 322.975 747.165 308.162 749.59 293.72L791.29 46.06C792.493 38.9091 795.094 32.0654 798.942 25.9196C802.791 19.7738 807.813 14.4464 813.721 10.2416C819.629 6.03681 826.307 3.03703 833.374 1.4136C840.442 -0.209838 847.759 -0.425134 854.91 0.780005L1453.22 101.52C1460.37 102.721 1467.22 105.32 1473.37 109.167C1479.51 113.015 1484.84 118.037 1489.05 123.945C1493.25 129.853 1496.25 136.533 1497.88 143.601C1499.5 150.669 1499.72 157.989 1498.51 165.14L1456.82 412.79C1455.62 419.941 1453.01 426.785 1449.16 432.931C1445.31 439.077 1440.29 444.404 1434.38 448.609C1428.47 452.814 1421.8 455.813 1414.73 457.437C1407.66 459.06 1400.34 459.275 1393.19 458.07L1321.19 445.95C1320.88 445.916 1320.59 445.82 1320.32 445.668C1320.05 445.516 1319.82 445.311 1319.64 445.066C1319.45 444.82 1319.32 444.539 1319.24 444.241C1319.17 443.942 1319.16 443.631 1319.21 443.328C1319.26 443.025 1319.37 442.735 1319.54 442.477C1319.71 442.219 1319.93 441.997 1320.18 441.826C1320.44 441.655 1320.72 441.538 1321.03 441.482C1321.33 441.426 1321.64 441.432 1321.94 441.5L1393.94 453.63C1400.51 454.735 1407.23 454.534 1413.73 453.039C1420.22 451.545 1426.35 448.786 1431.78 444.92C1437.21 441.054 1441.82 436.157 1445.35 430.508C1448.88 424.86 1451.27 418.571 1452.37 412L1494.06 164.35C1496.28 151.099 1493.14 137.511 1485.35 126.57C1477.55 115.629 1465.73 108.23 1452.48 106L854.16 5.23001C847.594 4.12373 840.874 4.32172 834.385 5.81267C827.895 7.30362 821.763 10.0583 816.338 13.9195C810.913 17.7806 806.302 22.6726 802.767 28.316C799.233 33.9594 796.845 40.2437 795.74 46.81L754 294.46C752.892 301.028 753.09 307.749 754.581 314.24C756.072 320.732 758.827 326.866 762.689 332.292C766.551 337.718 771.445 342.33 777.09 345.864C782.736 349.399 789.022 351.786 795.59 352.89L815.3 356.21C815.593 356.258 815.873 356.364 816.124 356.521C816.376 356.678 816.594 356.884 816.766 357.125C816.938 357.367 817.06 357.64 817.126 357.929C817.192 358.218 817.2 358.518 817.15 358.81L801.07 454.6L944.51 378.43C944.949 378.201 945.451 378.12 945.94 378.2L1127.45 408.76C1128.04 408.86 1128.57 409.19 1128.91 409.678C1129.26 410.165 1129.4 410.77 1129.3 411.36C1129.19 411.946 1128.86 412.467 1128.38 412.812C1127.89 413.158 1127.29 413.3 1126.7 413.21L946 382.77L799.19 460.77C798.846 460.941 798.464 461.02 798.08 461Z" fill="#EF3254"/>
<path d="M1092.42 1287.55C1104.88 1285.96 1116.32 1279.89 1124.62 1270.46C1132.92 1261.04 1137.5 1248.92 1137.5 1236.36L1140.87 527.08L1128.22 499.73C1128.22 499.73 1105.22 484.42 1093.22 477.57C1085.69 473.279 1076.96 471.562 1068.37 472.68L45.08 603.17C32.6241 604.761 21.1752 610.838 12.8772 620.262C4.57913 629.687 0.000980608 641.813 0 654.37V1357.49C1.21 1400.62 59.19 1426.62 59.19 1426.62L1092.42 1287.55Z" fill="#EF3254"/>
<path d="M81.8201 1431L1111.28 1299.71C1123.81 1298.12 1135.33 1292.01 1143.68 1282.53C1152.04 1273.04 1156.64 1260.84 1156.64 1248.21V540.82C1156.63 535.093 1155.41 529.433 1153.05 524.216C1150.69 518.999 1147.24 514.344 1142.94 510.56C1138.65 506.777 1133.59 503.952 1128.12 502.272C1122.64 500.593 1116.87 500.098 1111.19 500.82L81.7201 632.08C69.1908 633.68 57.6744 639.793 49.3268 649.272C40.9793 658.752 36.3729 670.949 36.3701 683.58V1391C36.3723 1396.73 37.5941 1402.39 39.9544 1407.61C42.3146 1412.83 45.7592 1417.48 50.0589 1421.27C54.3586 1425.05 59.4148 1427.88 64.8912 1429.55C70.3676 1431.23 76.1385 1431.73 81.8201 1431Z" fill="white"/>
<path d="M76.7199 1433.56C65.4276 1433.56 54.5972 1429.08 46.6077 1421.1C38.6182 1413.12 34.1231 1402.29 34.1099 1391V683.58C34.1368 670.405 38.9528 657.689 47.6606 647.802C56.3684 637.915 68.3739 631.531 81.4399 629.84L1110.9 498.56C1116.9 497.791 1123 498.31 1128.78 500.083C1134.57 501.855 1139.91 504.84 1144.45 508.839C1149 512.837 1152.63 517.758 1155.12 523.272C1157.61 528.787 1158.9 534.769 1158.9 540.82V1248.19C1158.88 1261.36 1154.06 1274.08 1145.36 1283.97C1136.65 1293.86 1124.65 1300.24 1111.58 1301.93L82.1099 1433.22C80.3222 1433.45 78.5219 1433.56 76.7199 1433.56ZM1116.29 502.73C1114.68 502.731 1113.07 502.831 1111.47 503.03L81.9999 634.32C70.0227 635.868 59.0175 641.72 51.036 650.783C43.0545 659.846 38.6415 671.503 38.6199 683.58V1391C38.6174 1396.41 39.7674 1401.76 41.9934 1406.69C44.2193 1411.61 47.4701 1416.01 51.5292 1419.59C55.5883 1423.16 60.3626 1425.83 65.5339 1427.42C70.7052 1429 76.1548 1429.47 81.5199 1428.78L1111 1297.46C1122.98 1295.91 1133.98 1290.05 1141.96 1280.99C1149.94 1271.92 1154.36 1260.27 1154.38 1248.19V540.82C1154.38 530.718 1150.37 521.03 1143.22 513.886C1136.08 506.743 1126.39 502.73 1116.29 502.73Z" fill="#EF3254"/>
<path d="M118.68 1397.67L1074.41 1275.79C1086.04 1274.31 1096.74 1268.63 1104.49 1259.83C1112.24 1251.03 1116.52 1239.7 1116.52 1227.97V571.26C1116.52 565.941 1115.39 560.682 1113.2 555.835C1111.01 550.988 1107.81 546.663 1103.82 543.148C1099.82 539.633 1095.13 537.009 1090.04 535.451C1084.96 533.892 1079.6 533.435 1074.32 534.11L118.59 656C106.958 657.484 96.2655 663.158 88.5158 671.959C80.7661 680.759 76.4906 692.084 76.49 703.81V1360.52C76.4914 1365.84 77.6251 1371.09 79.8156 1375.94C82.0061 1380.79 85.2032 1385.11 89.1943 1388.62C93.1854 1392.14 97.879 1394.76 102.963 1396.32C108.047 1397.88 113.405 1398.34 118.68 1397.67Z" fill="white"/>
<path d="M113.94 1400.23C103.407 1400.23 93.3069 1396.04 85.8602 1388.59C78.4134 1381.14 74.23 1371.04 74.23 1360.51V703.8C74.2647 691.538 78.7546 679.706 86.8638 670.508C94.973 661.309 106.149 655.372 118.31 653.8L1074 531.87C1079.59 531.156 1085.28 531.641 1090.67 533.294C1096.06 534.947 1101.04 537.729 1105.27 541.456C1109.5 545.183 1112.89 549.768 1115.21 554.907C1117.53 560.046 1118.73 565.621 1118.73 571.26V1228C1118.7 1240.26 1114.21 1252.09 1106.1 1261.29C1097.99 1270.49 1086.82 1276.43 1074.66 1278L119 1399.91C117.322 1400.12 115.632 1400.23 113.94 1400.23ZM1079.06 536.06C1077.57 536.059 1076.09 536.152 1074.61 536.34L118.88 658.23C107.796 659.654 97.6084 665.064 90.2215 673.45C82.8347 681.836 78.7534 692.624 78.74 703.8V1360.51C78.7411 1365.51 79.8066 1370.45 81.8657 1375.01C83.9248 1379.56 86.9302 1383.63 90.6821 1386.93C94.4339 1390.23 98.8462 1392.7 103.625 1394.16C108.405 1395.63 113.441 1396.06 118.4 1395.43L1074.13 1273.55C1085.21 1272.12 1095.4 1266.71 1102.79 1258.32C1110.17 1249.94 1114.25 1239.15 1114.26 1227.97V571.26C1114.26 566.637 1113.35 562.058 1111.59 557.786C1109.82 553.515 1107.23 549.633 1103.96 546.364C1100.69 543.095 1096.81 540.502 1092.53 538.734C1088.26 536.966 1083.68 536.057 1079.06 536.06Z" fill="#EF3254"/>
<path d="M681.89 1828.8L1734.29 1693.08C1737.89 1692.65 1741.2 1690.89 1743.56 1688.14C1745.93 1685.39 1747.18 1681.85 1747.07 1678.23C1746.99 1673.48 1746.61 1639.98 1746.61 1639.98L1190.15 1321.86C1162.27 1305.94 1126.15 1299.79 1094.35 1303.86L55.24 1437.86C52.1659 1438.26 49.2492 1439.45 46.778 1441.32C44.3069 1443.2 42.3669 1445.68 41.15 1448.53L39.47 1452.44C39.47 1452.44 40.37 1480.38 40.01 1486.9C39.8351 1489.61 40.4333 1492.3 41.7347 1494.68C43.0362 1497.06 44.9872 1499.02 47.36 1500.33L589.85 1810.5C617.726 1826.44 650.037 1832.86 681.89 1828.8Z" fill="#EF3254"/>
<path d="M681.89 1791.52L1730.53 1656.06C1744.45 1654.28 1748.11 1635.81 1735.92 1628.85L1196.34 1320.68C1168.47 1304.76 1136.18 1298.36 1104.34 1302.43L55.6701 1437.89C41.7501 1439.67 38.0901 1458.13 50.2801 1465.09L589.85 1773.27C617.732 1789.19 650.042 1795.6 681.89 1791.52Z" fill="white"/>
<path d="M663.35 1795C637.191 1795 611.481 1788.2 588.74 1775.27L49.1599 1467.05C46.0876 1465.3 43.6443 1462.62 42.1753 1459.4C40.7063 1456.18 40.2859 1452.58 40.9734 1449.11C41.6609 1445.64 43.4216 1442.47 46.0067 1440.06C48.5918 1437.64 51.8706 1436.1 55.3799 1435.65L1104 1300.19C1136.33 1296.12 1169.11 1302.62 1197.44 1318.72L1737 1626.9C1740.07 1628.66 1742.52 1631.33 1743.98 1634.55C1745.45 1637.77 1745.87 1641.37 1745.18 1644.84C1744.49 1648.31 1742.73 1651.48 1740.15 1653.89C1737.56 1656.31 1734.28 1657.85 1730.77 1658.3L682.18 1793.76C675.936 1794.57 669.646 1794.99 663.35 1795ZM1122.89 1303.56C1116.78 1303.56 1110.69 1303.95 1104.63 1304.72L55.9999 1440.13C53.4305 1440.46 51.03 1441.59 49.137 1443.36C47.2441 1445.13 45.9541 1447.45 45.4493 1449.99C44.9444 1452.53 45.25 1455.16 46.3231 1457.52C47.3961 1459.88 49.1824 1461.84 51.4299 1463.13L591 1771.31C618.476 1786.94 650.275 1793.26 681.64 1789.31L1730.27 1653.85C1732.84 1653.52 1735.24 1652.39 1737.13 1650.62C1739.02 1648.85 1740.31 1646.53 1740.81 1643.99C1741.32 1641.45 1741.01 1638.81 1739.94 1636.46C1738.86 1634.1 1737.08 1632.14 1734.83 1630.85L1195.26 1322.68C1173.19 1310.12 1148.24 1303.51 1122.85 1303.5L1122.89 1303.56Z" fill="#EF3254"/>
<path d="M459.84 1623.78C436.17 1623.78 412.907 1617.63 392.33 1605.93L178.54 1485.06C175.722 1483.45 173.479 1481 172.131 1478.05C170.782 1475.1 170.396 1471.8 171.026 1468.62C171.657 1465.44 173.272 1462.54 175.643 1460.32C178.015 1458.11 181.022 1456.7 184.24 1456.29L1093.53 1338C1122.78 1334.31 1152.44 1340.19 1178.07 1354.76L1391.87 1475.63C1394.69 1477.24 1396.93 1479.69 1398.27 1482.64C1399.62 1485.59 1400.01 1488.89 1399.38 1492.07C1398.75 1495.25 1397.13 1498.16 1394.76 1500.37C1392.39 1502.58 1389.39 1504 1386.17 1504.41L476.87 1622.72C471.221 1623.43 465.533 1623.79 459.84 1623.78ZM1110.58 1341.39C1105.08 1341.37 1099.58 1341.71 1094.12 1342.39L184.82 1460.71C182.561 1461.03 180.459 1462.05 178.805 1463.62C177.151 1465.19 176.026 1467.24 175.586 1469.48C175.147 1471.72 175.414 1474.04 176.352 1476.12C177.29 1478.2 178.851 1479.94 180.82 1481.09L394.56 1602C419.341 1616.08 448.011 1621.77 476.29 1618.21L1385.59 1499.89C1387.85 1499.57 1389.96 1498.56 1391.62 1496.99C1393.28 1495.43 1394.41 1493.38 1394.86 1491.14C1395.3 1488.9 1395.04 1486.58 1394.11 1484.49C1393.17 1482.41 1391.61 1480.67 1389.64 1479.51L1175.84 1358.64C1155.94 1347.33 1133.45 1341.39 1110.57 1341.39H1110.58Z" fill="#EF3254"/>
<path d="M1005.72 1692.44C999.106 1692.44 992.607 1690.71 986.86 1687.44L864.61 1620.6C863.548 1620.01 862.7 1619.09 862.187 1617.99C861.674 1616.89 861.523 1615.65 861.754 1614.45C861.986 1613.26 862.589 1612.17 863.477 1611.34C864.365 1610.5 865.493 1609.97 866.7 1609.82L1119.78 1577.13C1127.95 1576.1 1136.24 1577.74 1143.4 1581.81L1265.66 1648.67C1266.72 1649.26 1267.57 1650.18 1268.08 1651.28C1268.6 1652.39 1268.75 1653.63 1268.51 1654.82C1268.28 1656.02 1267.68 1657.11 1266.79 1657.94C1265.9 1658.77 1264.77 1659.3 1263.56 1659.45L1010.48 1692.14C1008.9 1692.34 1007.31 1692.44 1005.72 1692.44ZM1124.55 1581.34C1123.15 1581.34 1121.75 1581.43 1120.36 1581.6L867.28 1614.3C867.013 1614.32 866.762 1614.43 866.564 1614.61C866.367 1614.8 866.236 1615.04 866.19 1615.3C866.13 1615.56 866.158 1615.84 866.27 1616.08C866.382 1616.33 866.572 1616.53 866.81 1616.66L989.06 1683.51C995.375 1687.11 1002.69 1688.57 1009.9 1687.66L1263 1655C1263.27 1654.98 1263.52 1654.87 1263.72 1654.69C1263.91 1654.51 1264.05 1654.26 1264.09 1654C1264.15 1653.74 1264.12 1653.46 1264.01 1653.22C1263.9 1652.97 1263.72 1652.77 1263.48 1652.64L1141.22 1585.79C1136.14 1582.88 1130.4 1581.35 1124.55 1581.34Z" fill="#EF3254"/>
<path d="M416.29 1466.89C415.719 1466.88 415.172 1466.66 414.759 1466.27C414.346 1465.87 414.097 1465.34 414.063 1464.77C414.028 1464.2 414.211 1463.63 414.574 1463.19C414.937 1462.75 415.454 1462.47 416.02 1462.39L796.4 1416.15C796.702 1416.1 797.012 1416.11 797.311 1416.18C797.61 1416.25 797.891 1416.38 798.138 1416.56C798.384 1416.74 798.591 1416.97 798.746 1417.24C798.901 1417.5 799 1417.8 799.037 1418.1C799.075 1418.4 799.049 1418.71 798.964 1419.01C798.878 1419.3 798.733 1419.58 798.537 1419.81C798.342 1420.05 798.101 1420.24 797.828 1420.39C797.555 1420.53 797.256 1420.61 796.95 1420.63L416.56 1466.87L416.29 1466.89Z" fill="#EF3254"/>
<path d="M582.59 1504.18C582.019 1504.17 581.472 1503.95 581.059 1503.56C580.646 1503.16 580.397 1502.63 580.363 1502.06C580.329 1501.49 580.511 1500.92 580.874 1500.48C581.238 1500.04 581.754 1499.76 582.32 1499.68L692.76 1486.26C693.063 1486.21 693.374 1486.21 693.674 1486.28C693.973 1486.35 694.256 1486.48 694.503 1486.67C694.751 1486.85 694.958 1487.08 695.113 1487.35C695.268 1487.61 695.367 1487.91 695.404 1488.21C695.44 1488.52 695.414 1488.83 695.327 1489.12C695.24 1489.42 695.093 1489.69 694.897 1489.93C694.7 1490.17 694.456 1490.36 694.182 1490.5C693.907 1490.64 693.607 1490.72 693.3 1490.74L582.86 1504.16L582.59 1504.18Z" fill="#EF3254"/>
<path d="M976.4 1510.89C975.815 1510.91 975.246 1510.7 974.813 1510.3C974.381 1509.91 974.119 1509.36 974.084 1508.78C974.049 1508.19 974.243 1507.62 974.625 1507.17C975.007 1506.73 975.547 1506.45 976.13 1506.4L1086.57 1493C1086.87 1492.95 1087.18 1492.95 1087.48 1493.02C1087.78 1493.09 1088.07 1493.22 1088.31 1493.41C1088.56 1493.59 1088.77 1493.82 1088.92 1494.09C1089.08 1494.35 1089.18 1494.65 1089.21 1494.95C1089.25 1495.26 1089.22 1495.57 1089.14 1495.86C1089.05 1496.16 1088.9 1496.43 1088.71 1496.67C1088.51 1496.91 1088.27 1497.1 1087.99 1497.24C1087.72 1497.38 1087.42 1497.46 1087.11 1497.48L976.68 1510.91L976.4 1510.89Z" fill="#EF3254"/>
<mask id="mask0_1140_63" style="mask-type:luminance" maskUnits="userSpaceOnUse" x="76" y="173" width="1540" height="1225">
<path d="M118.68 1397.67L1074.41 1275.79C1086.04 1274.31 1096.74 1268.63 1104.49 1259.83C1112.24 1251.03 1116.52 1239.7 1116.52 1227.97L1615.57 406.45C1615.57 383.88 1096.71 170.9 1074.32 173.76L118.59 295.64C106.956 297.124 96.2624 302.799 88.5125 311.602C80.7626 320.405 76.4882 331.732 76.49 343.46V1360.51C76.49 1365.83 77.6226 1371.09 79.8125 1375.93C82.0024 1380.78 85.1993 1385.11 89.1906 1388.62C93.1818 1392.14 97.8759 1394.76 102.961 1396.32C108.045 1397.88 113.404 1398.34 118.68 1397.67Z" fill="white"/>
</mask>
<g mask="url(#mask0_1140_63)">
<path d="M599.38 1917.47L604.59 1675C604.59 1675 641.35 1761.45 665.59 1917.51H940.59C916.23 1692.64 837.44 1488.64 815 1433.88C813.108 1429.24 810.215 1425.07 806.528 1421.68C802.842 1418.28 798.451 1415.74 793.67 1414.24C739.95 1397.39 552.67 1352.99 359.85 1476.63C355.362 1479.51 351.607 1483.39 348.883 1487.97C346.159 1492.56 344.542 1497.71 344.16 1503.03C340.7 1551.78 332.52 1703.03 345.16 1917.47H599.38Z" fill="#EF3254"/>
<path d="M1230.29 528.28C1230.29 528.28 1231.41 428.28 1233.2 401.14C1235.2 370.34 1193.13 405.3 1191.5 499.72L1230.29 528.28Z" fill="white"/>
<path d="M1230.29 530.54C1229.81 530.54 1229.34 530.386 1228.96 530.1L1190.16 501.54C1189.87 501.326 1189.64 501.045 1189.48 500.721C1189.32 500.398 1189.24 500.04 1189.25 499.68C1190.35 435.68 1210.18 396.56 1223.92 389.23C1227.63 387.23 1230.2 387.98 1231.7 388.95C1234.6 390.83 1235.87 394.95 1235.45 401.29C1233.68 428.01 1232.56 527.29 1232.55 528.29C1232.54 528.884 1232.3 529.451 1231.88 529.869C1231.45 530.286 1230.88 530.52 1230.29 530.52V530.54ZM1193.78 498.6L1228.09 523.86C1228.33 504.22 1229.39 424.58 1230.95 400.99C1231.28 395.93 1230.29 393.41 1229.25 392.74C1228.21 392.07 1226.84 392.74 1226.04 393.21C1216.47 398.32 1195.16 431.91 1193.78 498.6Z" fill="#EF3254"/>
<path d="M1213.49 629.48C1223.24 608.58 1243.56 563.86 1244.97 550.94C1246.43 537.7 1235.97 526.44 1231.31 522.09C1228.53 519.52 1225.89 516.8 1223.31 514.09L1198.96 488.48C1192.88 482.39 1190.52 473.11 1181.28 473.56C1163.65 474.42 1155.62 503.73 1155.62 503.73C1155.62 503.73 1140.09 488.78 1130.29 494.22C1120.49 499.66 1100.5 544.47 1117.63 594.22C1132.81 638.28 1141.23 626.67 1140.75 657.94C1133.75 732.94 1101.01 898.52 1044.64 892.18C988.27 885.84 960.75 843.66 960.75 843.66L830.8 970.1C830.8 970.1 909.8 1090.57 1064.55 1077.47C1286.39 1058.68 1208.16 656.74 1208.15 656.64C1208.08 654.75 1208.06 653.24 1208.08 652.21C1208.31 644.343 1210.15 636.605 1213.49 629.48Z" fill="white"/>
<path d="M1041.53 1080.7C972.58 1080.7 920.77 1054.15 888.33 1030.52C849.33 1002.12 829.12 971.64 828.92 971.33C828.634 970.892 828.509 970.369 828.565 969.85C828.622 969.33 828.857 968.846 829.23 968.48L959.15 842C959.389 841.768 959.675 841.591 959.99 841.482C960.304 841.374 960.639 841.335 960.97 841.37C961.299 841.408 961.617 841.517 961.9 841.69C962.183 841.862 962.425 842.094 962.61 842.37C962.88 842.78 990.26 883.74 1044.86 889.89C1052.45 890.75 1060 888.17 1067.29 882.24C1106.86 850.06 1131.96 727.42 1138.48 657.68C1138.73 640.99 1136.48 637.41 1131.6 629.56C1127.6 623.21 1122.22 614.5 1115.47 594.9C1097.72 543.42 1118.91 497.9 1129.17 492.24C1137.75 487.48 1149.31 495.52 1154.48 499.75C1157.29 491.69 1165.69 472.05 1181.14 471.29C1188.81 470.89 1192.46 476.1 1195.97 481.11C1197.32 483.156 1198.85 485.083 1200.53 486.87L1224.91 512.53C1227.37 515.11 1230.03 517.87 1232.84 520.46C1237.68 524.95 1248.78 536.91 1247.21 551.22C1245.8 564.14 1226.75 606.41 1215.53 630.46C1212.32 637.306 1210.55 644.741 1210.34 652.3C1210.34 653.3 1210.34 654.67 1210.39 656.42C1211.24 660.82 1222.56 721 1223.7 795.58C1224.78 865.72 1216.54 961.93 1171.15 1021.99C1145.03 1056.54 1109.23 1075.99 1064.74 1079.74C1056.81 1080.39 1049.07 1080.71 1041.53 1080.7ZM833.74 970.38C838.32 976.83 857.74 1002.66 891.13 1026.97C922.99 1050.15 973.87 1076.19 1041.55 1076.19C1048.96 1076.19 1056.55 1075.88 1064.36 1075.19C1107.52 1071.53 1142.23 1052.7 1167.55 1019.19C1253.06 906.05 1206.41 659.5 1205.93 657.02C1205.93 656.9 1205.93 656.79 1205.93 656.67C1205.86 654.67 1205.84 653.16 1205.87 652.1C1206.1 643.922 1208.01 635.878 1211.48 628.47C1220.42 609.31 1241.37 563.38 1242.77 550.65C1244.12 538.38 1234.16 527.71 1229.77 523.65C1226.86 520.96 1224.14 518.14 1221.63 515.5L1197.3 490C1195.45 488.042 1193.78 485.928 1192.3 483.68C1188.75 478.62 1186.3 475.54 1181.38 475.78C1165.57 476.55 1157.86 504.02 1157.78 504.3C1157.68 504.675 1157.48 505.016 1157.2 505.291C1156.93 505.566 1156.58 505.765 1156.21 505.87C1155.83 505.978 1155.43 505.984 1155.05 505.887C1154.67 505.79 1154.32 505.595 1154.04 505.32C1150.04 501.49 1138.2 492.38 1131.38 496.17C1122.24 501.24 1103.09 545.08 1119.75 593.41C1126.34 612.53 1131.61 620.98 1135.45 627.15C1140.45 635.25 1143.28 639.71 1143 657.9C1136.4 728.55 1110.8 852.67 1070.16 885.72C1061.89 892.44 1053.22 895.33 1044.38 894.35C995.1 888.81 967.16 855.91 960.44 847.02L833.74 970.38Z" fill="#EF3254"/>
<path d="M1188 594.48C1180.27 594.48 1170.21 590.1 1160.1 577.71C1139.73 552.71 1153.41 503.29 1154 501.2C1154.07 500.898 1154.19 500.613 1154.37 500.362C1154.55 500.111 1154.78 499.899 1155.05 499.74C1155.31 499.581 1155.6 499.478 1155.91 499.437C1156.22 499.396 1156.53 499.419 1156.83 499.503C1157.12 499.587 1157.4 499.731 1157.64 499.927C1157.88 500.122 1158.07 500.364 1158.22 500.639C1158.36 500.913 1158.44 501.213 1158.46 501.521C1158.48 501.83 1158.44 502.139 1158.34 502.43C1158.2 502.92 1144.71 551.72 1163.59 574.86C1175.34 589.26 1186.69 591.53 1192.84 589.11C1197.52 587.26 1200.08 582.56 1199.67 576.53C1199 566.531 1194.99 557.047 1188.28 549.6C1187.89 549.174 1187.68 548.616 1187.69 548.04C1187.7 547.465 1187.93 546.915 1188.34 546.503C1188.74 546.091 1189.28 545.847 1189.86 545.823C1190.43 545.798 1190.99 545.994 1191.43 546.37C1198.98 554.562 1203.48 565.108 1204.17 576.23C1204.71 584.32 1201.1 590.7 1194.49 593.3C1192.42 594.101 1190.22 594.502 1188 594.48Z" fill="#EF3254"/>
<path d="M895.56 1067.2L1024.09 818.82L897.26 708.94C897.26 708.94 712.26 608.86 593.13 627.19C533.01 636.45 435.13 646.6 380.5 671.43C322.57 697.75 234.5 741.27 203.64 796.93L171.28 928.83C222 976.32 364 1014.89 364 1014.89L261.19 1435.3C372.64 1548.07 764.4 1495.3 881.01 1478.73L843.15 1044.47L895.56 1067.2Z" fill="white"/>
<path d="M555.17 1507.84C406.56 1507.84 306.17 1484.06 259.58 1436.89C259.309 1436.62 259.114 1436.28 259.012 1435.91C258.91 1435.53 258.906 1435.14 259 1434.77L361.24 1016.49C342.69 1011.31 217.52 975.2 169.74 930.49C169.449 930.214 169.235 929.867 169.121 929.482C169.007 929.098 168.996 928.69 169.09 928.3L201.45 796.4C201.494 796.208 201.565 796.023 201.66 795.85C231.58 741.85 312.45 699.85 379.57 669.38C424.89 648.79 498.74 638.38 558.08 630.01C570.5 628.25 582.24 626.6 592.79 625.01C711.26 606.79 896.47 706.01 898.33 707.01C898.475 707.085 898.61 707.179 898.73 707.29L1025.57 817.17C1025.95 817.503 1026.21 817.953 1026.3 818.45C1026.4 818.947 1026.32 819.461 1026.09 819.91L897.56 1068.23C897.294 1068.73 896.847 1069.12 896.308 1069.3C895.769 1069.49 895.18 1069.46 894.66 1069.23L845.73 1048L883.26 1478.5C883.309 1479.07 883.136 1479.64 882.777 1480.09C882.418 1480.54 881.9 1480.84 881.33 1480.92C755.37 1498.91 646.2 1507.84 555.17 1507.84ZM263.68 1434.61C338.47 1508.69 551 1523.28 878.58 1476.8L840.91 1044.66C840.876 1044.27 840.943 1043.88 841.106 1043.53C841.268 1043.17 841.52 1042.86 841.837 1042.64C842.154 1042.41 842.524 1042.27 842.912 1042.23C843.3 1042.18 843.692 1042.24 844.05 1042.4L894.52 1064.29L1021.27 819.36L896 710.81C888.71 706.91 708.65 611.7 593.51 629.42C582.93 631.05 571.18 632.71 558.73 634.42C499.73 642.75 426.2 653.11 381.46 673.42C320.27 701.22 235.53 744.34 205.78 797.7L173.78 928.02C224.36 974.19 363.13 1012.28 364.53 1012.66C365.098 1012.81 365.583 1013.18 365.883 1013.69C366.182 1014.2 366.27 1014.8 366.13 1015.37L263.68 1434.61Z" fill="#EF3254"/>
<path d="M643 764.69C642.726 764.689 642.455 764.638 642.2 764.54L438.7 686.3C438.423 686.194 438.169 686.034 437.954 685.829C437.739 685.625 437.566 685.38 437.445 685.109C437.324 684.838 437.258 684.546 437.251 684.249C437.243 683.952 437.294 683.657 437.4 683.38C437.506 683.103 437.666 682.849 437.87 682.634C438.075 682.419 438.32 682.246 438.591 682.125C438.862 682.004 439.154 681.938 439.451 681.931C439.747 681.923 440.043 681.974 440.32 682.08L643.85 760.33C644.347 760.514 644.764 760.868 645.026 761.329C645.288 761.791 645.378 762.33 645.281 762.851C645.184 763.373 644.906 763.843 644.496 764.18C644.086 764.516 643.57 764.697 643.04 764.69H643Z" fill="#EF3254"/>
<path d="M807 956.68L480.28 855.77C478.302 855.159 476.222 854.945 474.161 855.138C472.1 855.331 470.096 855.929 468.266 856.896C466.436 857.864 464.814 859.183 463.493 860.777C462.173 862.372 461.179 864.211 460.57 866.19L328.65 1293.32C327.428 1297.31 327.838 1301.62 329.789 1305.31C331.74 1309 335.074 1311.76 339.06 1313L665.79 1413.9C669.785 1415.13 674.108 1414.73 677.806 1412.78C681.504 1410.83 684.275 1407.49 685.51 1403.49L817.42 976.4C818.031 974.421 818.246 972.341 818.053 970.279C817.86 968.217 817.262 966.213 816.295 964.382C815.327 962.551 814.008 960.928 812.413 959.606C810.819 958.285 808.979 957.291 807 956.68Z" fill="white"/>
<path d="M670.43 1416.9C668.633 1416.9 666.846 1416.63 665.13 1416.1L338.39 1315.19C336.128 1314.49 334.025 1313.36 332.203 1311.85C330.38 1310.34 328.873 1308.49 327.768 1306.39C326.662 1304.3 325.98 1302.01 325.761 1299.65C325.542 1297.3 325.79 1294.92 326.49 1292.66L458.41 865.52C459.106 863.251 460.243 861.143 461.757 859.315C463.27 857.488 465.13 855.977 467.23 854.871C469.329 853.765 471.627 853.086 473.99 852.871C476.353 852.656 478.735 852.911 481 853.62L807.68 954.53C809.942 955.226 812.044 956.361 813.867 957.871C815.69 959.38 817.197 961.234 818.302 963.327C819.407 965.42 820.089 967.71 820.308 970.066C820.528 972.423 820.28 974.799 819.58 977.06L687.67 1404.2C686.527 1407.88 684.237 1411.1 681.135 1413.38C678.033 1415.67 674.282 1416.9 670.43 1416.9ZM475.61 857.32C472.726 857.327 469.92 858.256 467.602 859.97C465.283 861.685 463.572 864.095 462.72 866.85L330.81 1294C330.286 1295.69 330.101 1297.48 330.265 1299.24C330.43 1301.01 330.941 1302.72 331.77 1304.29C332.598 1305.86 333.727 1307.25 335.093 1308.38C336.459 1309.52 338.035 1310.37 339.73 1310.89L666.46 1411.8C669.884 1412.85 673.585 1412.5 676.752 1410.83C679.919 1409.16 682.295 1406.3 683.36 1402.88L815.27 975.73C816.323 972.306 815.976 968.604 814.304 965.436C812.631 962.268 809.771 959.892 806.35 958.83L479.61 857.93C478.315 857.525 476.966 857.32 475.61 857.32Z" fill="#EF3254"/>
<path d="M770.152 976.428L500.325 892.107L373.368 1298.37L643.195 1382.69L770.152 976.428Z" fill="white"/>
<path d="M646.54 1375.35C646.316 1375.35 646.093 1375.32 645.88 1375.25L377.33 1292.31C377.046 1292.22 376.783 1292.08 376.555 1291.89C376.326 1291.7 376.137 1291.47 375.999 1291.21C375.86 1290.95 375.775 1290.66 375.748 1290.37C375.721 1290.07 375.752 1289.77 375.84 1289.49L500.71 885.15C500.891 884.581 501.285 884.105 501.81 883.82C502.072 883.681 502.359 883.595 502.654 883.567C502.949 883.54 503.247 883.571 503.53 883.66L772.08 966.6C772.364 966.686 772.628 966.827 772.857 967.015C773.087 967.204 773.276 967.436 773.415 967.698C773.553 967.961 773.638 968.248 773.665 968.544C773.692 968.839 773.659 969.137 773.57 969.42L648.7 1373.76C648.557 1374.22 648.27 1374.62 647.881 1374.91C647.493 1375.2 647.022 1375.35 646.54 1375.35ZM380.81 1288.67L645.05 1370.28L768.6 970.28L504.36 888.68L380.81 1288.67Z" fill="#EF3254"/>
<path d="M722.79 910.75L575.79 865.33C573.372 864.583 570.83 864.32 568.31 864.555C565.79 864.791 563.341 865.521 561.103 866.703C558.865 867.885 556.882 869.496 555.267 871.445C553.651 873.394 552.436 875.642 551.69 878.06L541.3 911.71L725.17 968.49L735.57 934.84C736.314 932.419 736.574 929.875 736.334 927.354C736.095 924.833 735.361 922.383 734.174 920.146C732.987 917.908 731.37 915.927 729.417 914.315C727.464 912.702 725.212 911.491 722.79 910.75Z" fill="white"/>
<path d="M725.12 970.75C724.896 970.746 724.674 970.713 724.46 970.65L540.58 913.86C540.009 913.682 539.532 913.286 539.252 912.758C538.973 912.229 538.915 911.611 539.09 911.04L549.49 877.39C550.323 874.689 551.68 872.179 553.483 870.003C555.287 867.828 557.501 866.028 560 864.709C562.499 863.389 565.234 862.575 568.048 862.312C570.862 862.05 573.7 862.345 576.4 863.18L723.45 908.59C726.152 909.422 728.664 910.778 730.842 912.582C733.02 914.386 734.821 916.601 736.142 919.101C737.462 921.602 738.277 924.338 738.539 927.154C738.802 929.969 738.506 932.809 737.67 935.51L727.28 969.16C727.137 969.621 726.85 970.024 726.461 970.31C726.072 970.596 725.602 970.75 725.12 970.75ZM544.12 910.22L723.68 965.67L733.41 934.18C734.071 932.045 734.305 929.8 734.098 927.574C733.891 925.348 733.247 923.185 732.203 921.209C731.159 919.232 729.736 917.481 728.014 916.055C726.292 914.629 724.306 913.557 722.17 912.9L575.17 867.48C573.035 866.82 570.791 866.587 568.567 866.795C566.342 867.003 564.18 867.647 562.205 868.691C560.229 869.735 558.479 871.158 557.054 872.879C555.629 874.6 554.557 876.584 553.9 878.72L544.12 910.22Z" fill="#EF3254"/>
<path d="M668.06 827.19C657.577 823.954 646.238 825.014 636.537 830.138C626.836 835.261 619.568 844.028 616.33 854.51L604.13 894L683.13 918.41L695.34 878.89C698.571 868.417 697.513 857.089 692.398 847.395C687.283 837.701 678.529 830.434 668.06 827.19ZM657.46 861.5C655.916 861.023 654.549 860.099 653.53 858.845C652.512 857.591 651.888 856.063 651.738 854.454C651.587 852.846 651.917 851.229 652.686 849.808C653.454 848.387 654.627 847.225 656.055 846.471C657.484 845.716 659.104 845.401 660.711 845.567C662.318 845.733 663.84 846.372 665.084 847.402C666.328 848.433 667.239 849.809 667.701 851.358C668.163 852.906 668.156 854.556 667.68 856.1C667.039 858.17 665.603 859.902 663.687 860.914C661.771 861.927 659.531 862.137 657.46 861.5Z" fill="white"/>
<path d="M683.16 920.69C682.936 920.688 682.713 920.651 682.5 920.58L603.5 896.18C602.929 896.002 602.452 895.606 602.173 895.078C601.893 894.549 601.835 893.931 602.01 893.36L614.22 853.84C617.633 842.788 625.297 833.545 635.525 828.144C645.754 822.743 657.708 821.627 668.76 825.04C679.812 828.453 689.055 836.117 694.456 846.345C699.857 856.574 700.973 868.528 697.56 879.58L685.36 919.1C685.214 919.567 684.92 919.974 684.524 920.26C684.127 920.547 683.649 920.697 683.16 920.69ZM607 892.53L681.72 915.61L693.26 878.25C694.775 873.344 695.31 868.187 694.832 863.074C694.355 857.962 692.875 852.993 690.478 848.452C688.08 843.912 684.811 839.888 680.859 836.61C676.906 833.332 672.346 830.865 667.44 829.35C657.531 826.289 646.813 827.29 637.643 832.132C633.102 834.53 629.078 837.799 625.8 841.751C622.522 845.704 620.055 850.264 618.54 855.17L607 892.53ZM659.91 864.12C658.873 864.118 657.842 863.963 656.85 863.66C654.874 863.058 653.122 861.884 651.814 860.286C650.507 858.687 649.703 856.737 649.505 854.681C649.308 852.625 649.725 850.557 650.703 848.739C651.682 846.92 653.179 845.433 655.003 844.466C656.828 843.499 658.899 843.096 660.953 843.307C663.007 843.518 664.953 844.334 666.543 845.651C668.133 846.969 669.296 848.729 669.885 850.708C670.473 852.688 670.461 854.797 669.85 856.77C669.189 858.902 667.863 860.766 666.065 862.089C664.267 863.412 662.092 864.124 659.86 864.12H659.91ZM658.18 859.35C659.678 859.809 661.298 859.655 662.683 858.922C664.069 858.19 665.107 856.937 665.57 855.44C665.914 854.323 665.918 853.129 665.584 852.009C665.249 850.889 664.589 849.894 663.689 849.149C662.789 848.404 661.688 847.943 660.525 847.823C659.362 847.704 658.19 847.932 657.157 848.478C656.124 849.025 655.276 849.866 654.721 850.894C654.166 851.922 653.928 853.092 654.037 854.256C654.147 855.419 654.599 856.524 655.336 857.431C656.073 858.338 657.063 859.006 658.18 859.35Z" fill="#EF3254"/>
<path d="M727.704 1020.34L509.959 953.099L504.386 971.148L722.131 1038.39L727.704 1020.34Z" fill="#EF3254"/>
<path d="M716.284 1057.35L498.538 990.109L492.965 1008.16L710.71 1075.4L716.284 1057.35Z" fill="#EF3254"/>
<path d="M704.85 1094.37L487.105 1027.13L481.531 1045.18L699.277 1112.42L704.85 1094.37Z" fill="#EF3254"/>
<path d="M191.22 942.59L351.5 1013.39C351.5 1013.39 307 1095.05 459.13 1151.63C611.26 1208.21 643 1181.88 643 1181.88L695.26 1096.74C695.26 1096.74 713.44 1100.28 702.14 1129.62C690.84 1158.96 684.48 1171.12 714.52 1168.38C744.56 1165.64 773.65 1126.38 773.65 1126.38C773.65 1126.38 777.78 1155.91 762.65 1177.77C762.65 1177.77 776.4 1186.15 757.15 1212.83C757.15 1212.83 763.57 1225.11 736.52 1247.9C736.52 1247.9 754.44 1263 702.14 1274.02C673.26 1280.1 636.14 1269.91 636.14 1269.91C636.14 1269.91 414.52 1327.81 282.6 1247.91C150.68 1168.01 191.22 942.59 191.22 942.59Z" fill="white"/>
<path d="M468.68 1292.39C408.5 1292.39 337.01 1283.47 281.46 1249.82C226.89 1216.76 193.61 1153.03 185.21 1065.49C178.89 999.61 188.9 942.76 189 942.19C189.06 941.854 189.195 941.536 189.396 941.261C189.597 940.985 189.858 940.759 190.16 940.6C190.466 940.436 190.805 940.345 191.152 940.333C191.499 940.321 191.843 940.388 192.16 940.53L352.44 1011.33C352.724 1011.46 352.979 1011.64 353.189 1011.87C353.399 1012.1 353.559 1012.37 353.66 1012.66C353.76 1012.96 353.798 1013.27 353.772 1013.58C353.746 1013.89 353.657 1014.19 353.51 1014.47C353.39 1014.69 341.43 1037.34 352.32 1066.32C364.83 1099.62 401.04 1127.61 459.95 1149.51C601.18 1202 638 1182.43 641.37 1180.3L693.37 1095.56C693.613 1095.17 693.969 1094.87 694.389 1094.69C694.809 1094.51 695.273 1094.47 695.72 1094.56C697.833 1095.09 699.813 1096.05 701.535 1097.38C703.256 1098.72 704.681 1100.4 705.72 1102.31C709.41 1108.98 708.94 1118.46 704.31 1130.46L702.55 1135.02C697.04 1149.21 693.06 1159.45 696.13 1163.52C698.13 1166.24 704.13 1167.1 714.38 1166.16C743.08 1163.54 771.62 1125.44 771.91 1125.05C772.179 1124.71 772.542 1124.45 772.954 1124.31C773.367 1124.17 773.811 1124.15 774.233 1124.26C774.656 1124.36 775.039 1124.59 775.337 1124.91C775.634 1125.22 775.833 1125.62 775.91 1126.05C776.07 1127.27 779.78 1155.27 765.64 1177.36C767.532 1179.4 768.807 1181.94 769.32 1184.67C770.86 1192.32 767.62 1201.91 759.67 1213.19C760.67 1217.19 761.26 1229.34 739.74 1248.12C740.62 1249.28 741.231 1250.63 741.53 1252.06C741.829 1253.48 741.809 1254.96 741.47 1256.38C739.47 1264.54 726.35 1271.22 702.62 1276.22C675.18 1282 641.16 1273.55 636.13 1272.22C629.98 1273.78 576.37 1286.9 508.99 1291.11C496.43 1291.89 482.87 1292.39 468.68 1292.39ZM193 945.83C191.09 958.08 184.25 1008.21 189.73 1065.16C195.5 1125.16 216.5 1205.16 283.82 1245.96C337.01 1278.18 405.45 1287.72 467.82 1287.72C557.37 1287.72 634.36 1268.05 635.66 1267.72C636.043 1267.61 636.447 1267.61 636.83 1267.72C637.19 1267.82 673.77 1277.72 701.83 1271.8C730.54 1265.8 736.33 1258.8 737.23 1255.27C738.03 1252.09 735.23 1249.64 735.23 1249.62C734.979 1249.41 734.778 1249.14 734.64 1248.85C734.502 1248.55 734.43 1248.22 734.43 1247.9C734.43 1247.57 734.502 1247.24 734.64 1246.94C734.778 1246.65 734.979 1246.38 735.23 1246.17C760.15 1225.17 755.34 1213.93 755.29 1213.81C755.114 1213.44 755.039 1213.04 755.073 1212.63C755.106 1212.22 755.247 1211.83 755.48 1211.5C764.94 1198.39 765.92 1190.25 765.07 1185.73C764.748 1183.33 763.508 1181.16 761.61 1179.66C761.355 1179.5 761.135 1179.28 760.963 1179.03C760.792 1178.78 760.671 1178.5 760.61 1178.2C760.549 1177.9 760.548 1177.6 760.608 1177.3C760.668 1177 760.788 1176.72 760.96 1176.47C771.53 1161.19 772.33 1141.71 771.96 1132.29C763.13 1142.93 739.59 1168.37 714.85 1170.63C702.43 1171.75 695.77 1170.44 692.58 1166.21C688 1160.13 691.92 1150.05 698.4 1133.36L700.17 1128.81C704.17 1118.32 704.8 1109.93 701.88 1104.55C700.673 1102.28 698.735 1100.48 696.38 1099.45L645 1183.06C644.867 1183.27 644.702 1183.46 644.51 1183.62C643.18 1184.73 610.02 1210.12 458.38 1153.74C398.12 1131.34 361 1102.42 348.05 1067.74C338.37 1041.83 345.58 1021.1 348.49 1014.46L193 945.83Z" fill="#EF3254"/>
<path d="M843.29 1035C842.736 1035 842.203 1034.79 841.79 1034.43C841.377 1034.06 841.114 1033.55 841.05 1033L827.29 916.74C827.258 916.166 827.446 915.601 827.816 915.161C828.186 914.721 828.71 914.438 829.281 914.37C829.852 914.303 830.427 914.455 830.89 914.797C831.352 915.139 831.667 915.644 831.77 916.21L845.53 1032.5C845.566 1032.8 845.543 1033.1 845.461 1033.38C845.38 1033.67 845.242 1033.94 845.056 1034.17C844.87 1034.41 844.639 1034.6 844.377 1034.75C844.115 1034.89 843.827 1034.98 843.53 1035.01L843.29 1035Z" fill="#EF3254"/>
<path d="M372.64 1010.62C372.211 1010.62 371.791 1010.5 371.429 1010.27C371.066 1010.04 370.776 1009.72 370.594 1009.33C370.411 1008.94 370.343 1008.51 370.397 1008.09C370.451 1007.66 370.626 1007.26 370.9 1006.93L398.73 973.19C398.911 972.94 399.141 972.729 399.407 972.571C399.672 972.413 399.967 972.312 400.274 972.272C400.58 972.233 400.891 972.257 401.188 972.342C401.485 972.428 401.761 972.574 401.999 972.77C402.238 972.967 402.433 973.21 402.574 973.485C402.715 973.76 402.797 974.061 402.817 974.37C402.837 974.678 402.793 974.987 402.689 975.278C402.584 975.568 402.421 975.835 402.21 976.06L374.38 1009.8C374.169 1010.06 373.903 1010.26 373.602 1010.41C373.301 1010.55 372.973 1010.62 372.64 1010.62Z" fill="#EF3254"/>
<path d="M502.93 433.29C502.93 433.29 475.17 376.85 465.38 366.91C455.59 356.97 448 346.48 476.83 327.22C505.66 307.96 580.83 256.52 626.95 256.85C673.07 257.18 705.35 286.3 691.16 307.29C676.97 328.28 670.46 337.13 681.4 338.49C692.34 339.85 698.4 352.05 667.4 370C636.4 387.95 528.37 465.86 502.93 433.29Z" fill="#EF3254"/>
<path d="M659.72 596.18L643.14 537C679.02 529 689.78 480.29 681.26 442.27C675.08 414.67 658.81 351.82 658.81 351.82C621.35 373.82 520.01 376.15 520.01 376.15C520.01 376.15 530.54 392.93 524.49 401.21C518.44 409.49 522.21 441.21 522.21 441.21C522.21 441.21 509.1 428.87 495.07 438.3C487.18 443.61 496.19 466.3 502.66 478.96C509.13 491.62 523 494.16 523 494.16C523 494.16 525.3 492.79 530 503.99L515 583.25C511.966 599.239 505.004 614.223 494.74 626.853C484.475 639.483 471.231 649.361 456.2 655.6L638.84 715.6L717.11 646.87C703.677 644.849 691.114 638.99 680.932 629.997C670.751 621.004 663.384 609.261 659.72 596.18Z" fill="white"/>
<path d="M638.81 717.86C638.572 717.859 638.335 717.818 638.11 717.74L455.47 657.74C455.032 657.599 454.647 657.326 454.369 656.959C454.09 656.593 453.931 656.149 453.913 655.689C453.894 655.229 454.017 654.774 454.265 654.387C454.513 653.999 454.874 653.696 455.3 653.52C470.001 647.445 482.954 637.799 492.987 625.456C503.02 613.112 509.816 598.462 512.76 582.83L527.67 504.24C525.16 498.39 523.6 496.8 523.1 496.42C522.944 496.435 522.786 496.435 522.63 496.42C522.02 496.31 507.55 493.57 500.63 480.02C496.35 471.6 483.19 443.59 493.79 436.46C504.1 429.53 514.01 433.27 519.45 436.51C518.61 426.86 517.58 406.81 522.65 399.88C526.86 394.11 520.78 381.66 518.08 377.35C517.867 377.013 517.748 376.625 517.734 376.226C517.721 375.828 517.813 375.433 518.002 375.082C518.192 374.731 518.471 374.436 518.811 374.229C519.152 374.021 519.541 373.908 519.94 373.9C520.94 373.9 621.12 371.34 657.65 349.9C657.949 349.723 658.286 349.618 658.633 349.594C658.981 349.569 659.329 349.626 659.65 349.76C659.975 349.891 660.263 350.097 660.493 350.361C660.722 350.625 660.886 350.94 660.97 351.28C661.13 351.91 677.32 414.47 683.44 441.79C689.44 468.79 685.61 498.39 673.57 517.32C666.57 528.32 657.26 535.53 645.92 538.65L661.92 595.65C665.477 608.3 672.606 619.657 682.453 628.358C692.301 637.06 704.448 642.737 717.44 644.71C717.865 644.773 718.263 644.957 718.587 645.239C718.911 645.521 719.148 645.89 719.268 646.302C719.389 646.715 719.39 647.153 719.27 647.565C719.149 647.978 718.913 648.347 718.59 648.63L640.3 717.29C639.889 717.655 639.359 717.857 638.81 717.86ZM462.4 655.27L638.29 713.06L712.1 648.24C699.197 645.415 687.306 639.135 677.697 630.072C668.088 621.01 661.124 609.505 657.55 596.79L641 537.57C640.916 537.274 640.895 536.965 640.936 536.66C640.977 536.356 641.081 536.063 641.24 535.8C641.569 535.29 642.087 534.93 642.68 534.8C653.86 532.33 662.99 525.63 669.82 514.89C681.24 496.89 684.88 468.61 679.09 442.77C673.73 418.85 660.62 367.77 657.38 355.22C622 373.83 542.24 377.62 523.79 378.26C526.7 383.93 531.45 395.46 526.31 402.5C521.78 408.7 523.43 432.35 524.45 440.93C524.503 441.39 524.414 441.855 524.195 442.263C523.975 442.67 523.635 443 523.222 443.209C522.809 443.417 522.341 443.494 521.883 443.428C521.425 443.362 520.998 443.156 520.66 442.84C520.18 442.39 508.66 431.84 496.33 440.17C491 443.74 496.49 461.87 504.67 477.93C510 488.39 520.91 491.37 523.06 491.86C523.507 491.83 523.955 491.888 524.38 492.03C525.91 492.54 528.38 494.23 532.09 503.12C532.261 503.527 532.309 503.975 532.23 504.41L517.23 583.67C514.33 599.062 507.859 613.559 498.336 625.995C488.813 638.431 476.504 648.458 462.4 655.27Z" fill="#EF3254"/>
<path d="M612.59 543.34C598.35 543.34 585.99 540.22 575.66 533.99C563.732 526.906 554.88 515.622 550.84 502.35C550.737 501.784 550.854 501.201 551.167 500.718C551.48 500.236 551.964 499.89 552.523 499.753C553.081 499.615 553.671 499.695 554.172 499.977C554.673 500.259 555.048 500.721 555.22 501.27C559.062 513.367 567.187 523.647 578.07 530.18C594.24 539.89 615.95 541.44 642.59 534.77C642.877 534.698 643.175 534.683 643.468 534.726C643.761 534.769 644.042 534.869 644.296 535.021C644.55 535.173 644.772 535.373 644.948 535.611C645.125 535.848 645.253 536.118 645.325 536.405C645.397 536.692 645.412 536.99 645.369 537.283C645.326 537.576 645.226 537.857 645.074 538.111C644.922 538.365 644.722 538.587 644.484 538.763C644.247 538.94 643.977 539.068 643.69 539.14C633.534 541.807 623.089 543.218 612.59 543.34Z" fill="#EF3254"/>
<path d="M262.86 1381.54C262.287 1381.54 261.737 1381.32 261.32 1380.93C260.904 1380.53 260.651 1380 260.615 1379.43C260.578 1378.85 260.759 1378.29 261.122 1377.85C261.485 1377.4 262.003 1377.12 262.57 1377.04L884.77 1297.7C885.064 1297.66 885.361 1297.68 885.647 1297.76C885.932 1297.84 886.2 1297.97 886.434 1298.15C886.668 1298.33 886.864 1298.56 887.011 1298.82C887.158 1299.07 887.253 1299.36 887.29 1299.65C887.327 1299.94 887.307 1300.24 887.229 1300.53C887.151 1300.81 887.018 1301.08 886.837 1301.31C886.656 1301.55 886.43 1301.74 886.174 1301.89C885.917 1302.04 885.634 1302.13 885.34 1302.17L263.14 1381.52L262.86 1381.54Z" fill="#EF3254"/>
</g>
<path d="M1036.8 271.391C1076.89 231.307 1076.89 166.319 1036.8 126.236C996.72 86.1525 931.732 86.1525 891.649 126.236C851.566 166.319 851.566 231.307 891.649 271.391C931.732 311.474 996.72 311.474 1036.8 271.391Z" fill="white"/>
<path d="M964.28 303.71C942.828 303.722 921.889 297.158 904.283 284.901C886.678 272.644 873.254 255.285 865.82 235.162C858.386 215.04 857.3 193.122 862.708 172.364C868.116 151.605 879.759 133.003 896.066 119.066C912.373 105.129 932.561 96.5264 953.909 94.418C975.257 92.3095 996.738 96.7965 1015.46 107.274C1034.18 117.752 1049.23 133.716 1058.6 153.016C1067.96 172.316 1071.18 194.022 1067.83 215.21C1063.97 239.89 1051.41 262.377 1032.42 278.607C1013.43 294.837 989.261 303.741 964.28 303.71ZM964 98.4C937.976 98.4071 912.965 108.486 894.207 126.524C875.449 144.563 864.4 169.161 863.376 195.164C862.351 221.168 871.43 246.559 888.711 266.018C905.992 285.476 930.132 297.491 956.075 299.546C982.018 301.6 1007.75 293.535 1027.88 277.039C1048 260.543 1060.97 236.898 1064.05 211.057C1067.13 185.216 1060.09 159.185 1044.41 138.419C1028.72 117.653 1005.61 103.763 979.91 99.66C974.649 98.8155 969.328 98.3942 964 98.4Z" fill="#EF3254"/>
<path d="M1020 180.63L994.73 176.63L998.73 151.36C999.3 147.892 999.178 144.345 998.373 140.925C997.567 137.504 996.093 134.276 994.036 131.426C991.979 128.577 989.379 126.162 986.385 124.32C983.392 122.479 980.064 121.248 976.593 120.697C973.122 120.146 969.576 120.287 966.159 121.111C962.743 121.935 959.523 123.426 956.685 125.499C953.846 127.571 951.446 130.184 949.62 133.188C947.795 136.191 946.582 139.526 946.05 143L942.05 168.27L916.78 164.27C909.788 163.163 902.642 164.878 896.914 169.04C891.187 173.201 887.347 179.468 886.24 186.46C885.133 193.452 886.849 200.598 891.01 206.326C895.171 212.053 901.438 215.893 908.43 217L933.7 221L929.7 246.27C928.668 253.224 930.423 260.305 934.583 265.972C938.743 271.64 944.972 275.436 951.916 276.536C958.86 277.636 965.957 275.952 971.665 271.848C977.374 267.744 981.231 261.553 982.4 254.62L986.4 229.35L1011.67 233.35C1015.15 233.946 1018.72 233.844 1022.16 233.051C1025.6 232.259 1028.85 230.791 1031.72 228.732C1034.59 226.674 1037.02 224.066 1038.88 221.06C1040.73 218.055 1041.97 214.711 1042.52 211.222C1043.07 207.734 1042.93 204.171 1042.09 200.739C1041.26 197.308 1039.75 194.077 1037.65 191.233C1035.56 188.389 1032.92 185.989 1029.89 184.172C1026.86 182.356 1023.5 181.158 1020.01 180.65L1020 180.63Z" fill="#EF3254"/>
<path d="M1388.27 231.81L1112.06 188.062L1108.69 209.337L1384.9 253.085L1388.27 231.81Z" fill="white"/>
<path d="M1384.93 255.3C1384.81 255.31 1384.69 255.31 1384.57 255.3L1108.35 211.56C1107.76 211.467 1107.23 211.142 1106.88 210.659C1106.52 210.175 1106.38 209.571 1106.47 208.98L1109.84 187.7C1109.94 187.112 1110.26 186.584 1110.74 186.23C1110.98 186.056 1111.25 185.931 1111.54 185.862C1111.83 185.794 1112.13 185.783 1112.42 185.83L1388.65 229.57C1388.94 229.616 1389.22 229.72 1389.47 229.875C1389.73 230.029 1389.95 230.232 1390.12 230.472C1390.29 230.712 1390.42 230.983 1390.49 231.271C1390.56 231.559 1390.57 231.858 1390.52 232.15L1387.15 253.42C1387.06 253.946 1386.79 254.423 1386.38 254.767C1385.98 255.111 1385.46 255.3 1384.93 255.3ZM1111.28 207.43L1383.05 250.43L1385.71 233.61L1113.95 190.61L1111.28 207.43Z" fill="#EF3254"/>
<path d="M1381.07 277.254L1104.86 233.506L1101.49 254.781L1377.7 298.529L1381.07 277.254Z" fill="white"/>
<path d="M1377.73 300.73H1377.38L1101.16 257C1100.87 256.957 1100.58 256.856 1100.33 256.701C1100.07 256.546 1099.85 256.342 1099.68 256.1C1099.33 255.614 1099.19 255.011 1099.28 254.42L1102.65 233.15C1102.75 232.56 1103.07 232.032 1103.55 231.68C1104.04 231.328 1104.64 231.181 1105.23 231.27L1381.45 275C1382.04 275.097 1382.57 275.424 1382.92 275.91C1383.1 276.147 1383.22 276.417 1383.29 276.704C1383.36 276.99 1383.38 277.288 1383.33 277.58L1380 298.83C1379.91 299.367 1379.64 299.854 1379.22 300.203C1378.8 300.552 1378.27 300.739 1377.73 300.73ZM1104.09 252.86L1375.86 295.86L1378.52 279.05L1106.75 236.05L1104.09 252.86Z" fill="#EF3254"/>
<path d="M1389.75 838.12C1388 838.127 1386.28 837.683 1384.75 836.83C1363.97 825.22 1260.55 763.18 1264.58 681.83C1266.85 636.22 1293.27 623.45 1308.82 619.9C1337.92 613.26 1373.73 628.27 1387.02 652.68C1387.23 653.081 1387.55 653.412 1387.94 653.634C1388.34 653.855 1388.79 653.958 1389.24 653.93C1389.69 653.907 1390.13 653.756 1390.5 653.496C1390.87 653.236 1391.16 652.877 1391.33 652.46C1402.53 625.53 1439.54 604.73 1474.75 617.94C1491.08 624.07 1508.92 644.07 1511.95 674.94C1515.04 706.33 1503.95 769.07 1395.07 836.54C1393.48 837.551 1391.64 838.098 1389.75 838.12ZM1323.46 622.87C1318.89 622.851 1314.33 623.347 1309.87 624.35C1285.16 629.99 1270.7 650.5 1269.13 682.1C1265.22 760.75 1366.62 821.51 1386.99 832.89C1387.87 833.383 1388.87 833.631 1389.88 833.608C1390.89 833.585 1391.88 833.293 1392.74 832.76C1499.54 766.57 1510.49 705.76 1507.51 675.43C1504.68 646.65 1487.74 627.67 1473.2 622.21C1440.4 609.9 1405.94 629.21 1395.54 654.21C1395.04 655.414 1394.21 656.453 1393.15 657.205C1392.08 657.957 1390.83 658.392 1389.53 658.46C1388.22 658.528 1386.93 658.226 1385.79 657.589C1384.65 656.952 1383.72 656.006 1383.1 654.86C1372.69 635.79 1347.43 622.87 1323.46 622.87Z" fill="#EF3254"/>
<path d="M1420.74 751.21C1420.21 751.208 1419.69 751.019 1419.29 750.675C1418.88 750.331 1418.61 749.855 1418.52 749.33L1411.69 709.51L1410.28 717.73C1410.19 718.254 1409.92 718.729 1409.51 719.071C1409.11 719.413 1408.59 719.601 1408.06 719.6H1301C1300.43 719.562 1299.89 719.308 1299.5 718.889C1299.11 718.47 1298.89 717.918 1298.89 717.345C1298.89 716.772 1299.11 716.22 1299.5 715.801C1299.89 715.382 1300.43 715.128 1301 715.09H1406.17L1409.48 695.79C1409.57 695.268 1409.85 694.795 1410.25 694.454C1410.66 694.113 1411.17 693.926 1411.7 693.926C1412.24 693.926 1412.75 694.113 1413.16 694.454C1413.56 694.795 1413.84 695.268 1413.93 695.79L1420.75 735.61L1433.54 661.06C1433.63 660.538 1433.91 660.064 1434.31 659.724C1434.72 659.383 1435.23 659.196 1435.76 659.196C1436.3 659.196 1436.81 659.383 1437.22 659.724C1437.62 660.064 1437.9 660.538 1437.99 661.06L1450.5 734.06L1457.3 694.44C1457.39 693.914 1457.66 693.436 1458.06 693.091C1458.47 692.746 1458.99 692.556 1459.52 692.556C1460.05 692.556 1460.57 692.746 1460.98 693.091C1461.38 693.436 1461.65 693.914 1461.74 694.44L1464.64 711.34H1488.77C1489.34 711.378 1489.88 711.632 1490.27 712.051C1490.66 712.47 1490.88 713.022 1490.88 713.595C1490.88 714.168 1490.66 714.72 1490.27 715.139C1489.88 715.558 1489.34 715.812 1488.77 715.85H1462.77C1462.24 715.85 1461.72 715.661 1461.32 715.317C1460.91 714.973 1460.64 714.495 1460.55 713.97L1459.55 708.16L1452.76 747.78C1452.67 748.302 1452.39 748.776 1451.99 749.116C1451.58 749.457 1451.07 749.644 1450.53 749.644C1450 749.644 1449.49 749.457 1449.08 749.116C1448.68 748.776 1448.4 748.302 1448.31 747.78L1435.79 674.78L1423 749.33C1422.91 749.861 1422.63 750.343 1422.22 750.688C1421.8 751.032 1421.28 751.218 1420.74 751.21Z" fill="#EF3254"/>
<path d="M159.48 418.94H159.09C158.503 418.833 157.982 418.499 157.64 418.01C157.297 417.522 157.161 416.918 157.26 416.33C157.37 415.67 169.49 349.48 229.5 273.2C264.7 228.43 309.27 189 362 155.88C427.81 114.56 506.55 83.12 596 62.45C596.288 62.3844 596.587 62.3761 596.878 62.4258C597.17 62.4754 597.448 62.582 597.699 62.7394C597.949 62.8968 598.166 63.1019 598.337 63.3431C598.508 63.5843 598.629 63.8568 598.695 64.145C598.761 64.4333 598.769 64.7316 598.719 65.0231C598.67 65.3145 598.563 65.5933 598.406 65.8436C598.248 66.0938 598.043 66.3106 597.802 66.4816C597.561 66.6526 597.288 66.7744 597 66.84C395.54 113.39 287.88 206.25 233.05 276C173.73 351.39 161.82 416.47 161.7 417.11C161.602 417.626 161.326 418.092 160.921 418.426C160.515 418.76 160.006 418.942 159.48 418.94Z" fill="#EF3254"/>
<path d="M186.71 528.43H186.55C186.254 528.41 185.965 528.331 185.7 528.199C185.435 528.067 185.198 527.883 185.004 527.659C184.81 527.435 184.662 527.175 184.568 526.894C184.475 526.613 184.438 526.316 184.46 526.02C184.46 525.54 188.1 477.37 208.68 418.25C227.68 363.62 265.51 288.15 337.68 238.81C338.175 238.513 338.764 238.416 339.328 238.54C339.892 238.663 340.387 238.998 340.712 239.475C341.037 239.952 341.167 240.536 341.075 241.105C340.984 241.675 340.678 242.189 340.22 242.54C204 335.67 189.1 524.44 189 526.33C188.961 526.907 188.702 527.448 188.276 527.839C187.849 528.23 187.288 528.442 186.71 528.43Z" fill="#EF3254"/>
<path d="M1640.9 1420.64C1640.48 1420.64 1640.07 1420.52 1639.71 1420.3C1639.35 1420.08 1639.06 1419.76 1638.88 1419.39C1638.69 1419.01 1638.61 1418.59 1638.66 1418.17C1638.7 1417.75 1638.85 1417.35 1639.11 1417.02C1640.11 1415.7 1740.65 1283.43 1787.34 1134.83C1787.43 1134.55 1787.57 1134.29 1787.76 1134.06C1787.95 1133.83 1788.19 1133.65 1788.45 1133.51C1788.71 1133.37 1789 1133.29 1789.3 1133.26C1789.59 1133.24 1789.89 1133.27 1790.17 1133.36C1790.45 1133.45 1790.71 1133.59 1790.94 1133.78C1791.17 1133.97 1791.35 1134.21 1791.49 1134.47C1791.63 1134.73 1791.71 1135.02 1791.74 1135.32C1791.76 1135.61 1791.73 1135.91 1791.64 1136.19C1744.71 1285.56 1643.71 1418.44 1642.7 1419.76C1642.49 1420.03 1642.21 1420.26 1641.9 1420.41C1641.59 1420.56 1641.25 1420.64 1640.9 1420.64Z" fill="#EF3254"/>
<path d="M1605.82 1535.07C1605.38 1535.07 1604.95 1534.94 1604.58 1534.7C1604.22 1534.46 1603.93 1534.11 1603.75 1533.71C1603.58 1533.31 1603.52 1532.86 1603.6 1532.43C1603.67 1531.99 1603.87 1531.59 1604.17 1531.27C1673.23 1457.88 1740.69 1344.08 1741.36 1342.94C1741.68 1342.46 1742.17 1342.11 1742.74 1341.98C1743.3 1341.85 1743.89 1341.94 1744.39 1342.24C1744.89 1342.53 1745.26 1343.01 1745.42 1343.56C1745.58 1344.12 1745.52 1344.72 1745.25 1345.23C1744.57 1346.38 1676.87 1460.6 1607.46 1534.36C1607.25 1534.58 1606.99 1534.76 1606.71 1534.88C1606.43 1535.01 1606.13 1535.07 1605.82 1535.07Z" fill="#EF3254"/>
<path d="M659.19 79.2099C654.514 79.2119 649.942 77.8269 646.053 75.23C642.163 72.6332 639.132 68.9412 637.341 64.6212C635.551 60.3011 635.082 55.5471 635.994 50.9605C636.906 46.3738 639.157 42.1607 642.464 38.8539C645.771 35.5472 649.984 33.2955 654.571 32.3837C659.157 31.4719 663.911 31.9408 668.231 33.7313C672.551 35.5218 676.243 38.5534 678.84 42.4425C681.437 46.3316 682.822 50.9035 682.82 55.5799C682.812 61.8446 680.32 67.8503 675.89 72.2801C671.46 76.7099 665.455 79.202 659.19 79.2099ZM659.19 36.4499C655.406 36.448 651.706 37.5682 648.559 39.6691C645.412 41.7699 642.958 44.7569 641.509 48.2523C640.06 51.7477 639.679 55.5944 640.416 59.3059C641.153 63.0174 642.975 66.427 645.65 69.1034C648.325 71.7797 651.733 73.6027 655.444 74.3416C659.155 75.0806 663.002 74.7023 666.498 73.2547C669.995 71.8071 672.983 69.3552 675.085 66.209C677.188 63.0629 678.31 59.3639 678.31 55.5799C678.305 50.5097 676.289 45.6485 672.705 42.0624C669.12 38.4762 664.26 36.4579 659.19 36.4499Z" fill="#EF3254"/>
<path d="M121.91 1636.89C117.416 1636.89 113.024 1635.56 109.287 1633.06C105.551 1630.56 102.639 1627.02 100.919 1622.86C99.1998 1618.71 98.7499 1614.14 99.6265 1609.74C100.503 1605.33 102.667 1601.28 105.844 1598.1C109.022 1594.93 113.07 1592.76 117.477 1591.89C121.885 1591.01 126.453 1591.46 130.605 1593.18C134.756 1594.9 138.304 1597.81 140.801 1601.55C143.297 1605.28 144.63 1609.68 144.63 1614.17C144.622 1620.19 142.226 1625.97 137.967 1630.23C133.708 1634.49 127.933 1636.88 121.91 1636.89ZM121.91 1595.96C118.308 1595.96 114.788 1597.03 111.793 1599.03C108.798 1601.03 106.464 1603.87 105.086 1607.2C103.708 1610.53 103.347 1614.19 104.05 1617.72C104.752 1621.25 106.487 1624.5 109.034 1627.05C111.58 1629.59 114.825 1631.33 118.357 1632.03C121.89 1632.73 125.551 1632.37 128.879 1630.99C132.206 1629.62 135.05 1627.28 137.051 1624.29C139.052 1621.29 140.12 1617.77 140.12 1614.17C140.104 1609.35 138.179 1604.73 134.766 1601.33C131.354 1597.92 126.731 1596.01 121.91 1596V1595.96Z" fill="#EF3254"/>
<path d="M1660.94 441.51H1605.82C1605.49 441.51 1605.17 441.439 1604.87 441.3C1604.57 441.162 1604.3 440.96 1604.09 440.708C1603.88 440.457 1603.72 440.162 1603.64 439.845C1603.55 439.527 1603.53 439.194 1603.59 438.87L1613.35 383.03C1613.42 382.599 1613.62 382.198 1613.92 381.877C1614.21 381.555 1614.6 381.328 1615.02 381.222C1615.45 381.116 1615.89 381.135 1616.31 381.279C1616.72 381.423 1617.08 381.684 1617.35 382.03L1662.72 437.86C1662.99 438.19 1663.16 438.591 1663.22 439.015C1663.27 439.44 1663.2 439.87 1663.01 440.256C1662.83 440.642 1662.54 440.968 1662.18 441.196C1661.82 441.423 1661.4 441.542 1660.97 441.54L1660.94 441.51ZM1608.5 437H1656.2L1616.94 388.68L1608.5 437Z" fill="#EF3254"/>
</g>
<defs>
<clipPath id="clip0_1140_63">
<rect width="1791.75" height="1830" fill="white"/>
</clipPath>
</defs>
</svg>
