<svg width="133" height="21" viewBox="0 0 133 21" fill="none" xmlns="http://www.w3.org/2000/svg"><path d="M9.763 16.8h5.858c1.074 0 1.952.945 1.952 2.1 0 1.155-.878 2.1-1.952 2.1H9.763C4.373 21 0 16.296 0 10.5S4.374 0 9.763 0h5.858c1.074 0 1.952.945 1.952 2.1 0 1.155-.878 2.1-1.952 2.1H9.763c-3.222 0-5.858 2.835-5.858 6.3s2.636 6.3 5.858 6.3Zm22.474 0h-5.858c-1.074 0-1.952.945-1.952 2.1 0 1.155.878 2.1 1.952 2.1h5.858C37.627 21 42 16.296 42 10.5S37.626 0 32.237 0h-5.858c-1.074 0-1.952.945-1.952 2.1 0 1.155.878 2.1 1.952 2.1h5.858c3.222 0 5.858 2.835 5.858 6.3s-2.636 6.3-5.858 6.3Z" fill="#EF3254"/><rect x="19.231" y="3.5" width="3.538" height="14" rx="1.769" fill="#EF3254"/><rect x="27.59" y="8.621" width="3.758" height="13.18" rx="1.879" transform="rotate(90 27.59 8.621)" fill="#EF3254"/><path d="M50.836 18.137c-.584 0-1.036-.164-1.356-.493-.32-.33-.48-.808-.48-1.438V9.103c0-.615.153-1.087.459-1.416.32-.33.772-.494 1.356-.494.584 0 1.029.165 1.335.494.306.329.459.8.459 1.416v1.18l-.23-1.051c.292-.63.724-1.13 1.294-1.502.584-.387 1.272-.58 2.065-.58.75 0 1.39.186 1.919.558.542.372.932.937 1.168 1.695h-.292c.32-.7.8-1.251 1.44-1.652.64-.4 1.349-.6 2.127-.6.807 0 1.467.164 1.982.493.515.315.897.815 1.147 1.502.264.672.397 1.524.397 2.554v4.506c0 .63-.167 1.109-.501 1.438-.32.329-.779.493-1.377.493-.584 0-1.036-.164-1.356-.493-.32-.33-.48-.808-.48-1.438v-4.4c0-.614-.09-1.058-.27-1.33-.181-.271-.48-.407-.898-.407-.514 0-.91.186-1.189.558-.264.372-.396.9-.396 1.588v3.991c0 .63-.16 1.109-.48 1.438-.32.329-.779.493-1.377.493s-1.056-.164-1.376-.493c-.32-.33-.48-.808-.48-1.438v-4.4c0-.614-.09-1.058-.271-1.33-.181-.271-.48-.407-.897-.407-.501 0-.89.186-1.169.558-.264.372-.396.9-.396 1.588v3.991c0 1.288-.626 1.931-1.877 1.931Zm22.536.043c-1.252 0-2.336-.221-3.254-.665-.904-.458-1.6-1.102-2.086-1.931-.487-.83-.73-1.81-.73-2.94 0-1.087.23-2.039.688-2.854a5.047 5.047 0 0 1 1.92-1.932c.82-.472 1.751-.708 2.794-.708.765 0 1.46.129 2.087.386a4.215 4.215 0 0 1 1.606 1.095 4.544 4.544 0 0 1 1.001 1.717c.236.672.355 1.423.355 2.253 0 .286-.077.5-.23.644-.153.128-.396.193-.73.193H70.41v-1.803h4.63l-.333.28c0-.53-.07-.96-.209-1.288a1.572 1.572 0 0 0-.625-.751c-.265-.172-.598-.258-1.002-.258-.43 0-.806.107-1.126.322-.306.2-.543.5-.71.901-.166.4-.25.902-.25 1.502v.194c0 1.015.216 1.745.647 2.188.445.43 1.126.644 2.044.644.306 0 .654-.036 1.043-.107.404-.086.786-.2 1.148-.344.361-.143.674-.164.938-.064.265.086.466.243.605.472.153.215.237.465.25.751.015.272-.048.544-.187.816-.14.257-.369.458-.688.6a6.96 6.96 0 0 1-1.565.516 7.964 7.964 0 0 1-1.648.171Zm9.986 0c-.877 0-1.655-.221-2.337-.665-.667-.443-1.196-1.08-1.585-1.91-.376-.83-.563-1.81-.563-2.94 0-1.158.187-2.146.563-2.961.39-.816.918-1.445 1.585-1.889.682-.443 1.46-.665 2.337-.665.764 0 1.453.186 2.065.558.612.372 1.022.851 1.23 1.438h-.229V4.554c0-.63.16-1.11.48-1.438.32-.33.779-.494 1.377-.494.584 0 1.036.165 1.355.494.334.329.501.808.501 1.438v11.652c0 .63-.16 1.109-.48 1.438-.306.329-.758.493-1.356.493-.584 0-1.036-.164-1.356-.493-.32-.33-.48-.808-.48-1.438v-1.223l.23 1.051c-.194.644-.605 1.166-1.23 1.567-.612.386-1.315.58-2.108.58Zm1.189-2.81c.375 0 .709-.094 1-.28.293-.2.515-.493.668-.88.167-.4.25-.915.25-1.545 0-.958-.18-1.645-.542-2.06a1.722 1.722 0 0 0-1.376-.644c-.376 0-.71.093-1.002.28-.292.185-.521.479-.688.88-.167.386-.25.9-.25 1.544 0 .945.18 1.631.542 2.06.361.43.827.644 1.398.644Zm9.577 2.767c-.584 0-1.036-.178-1.356-.536-.32-.358-.48-.873-.48-1.545V9.275c0-.673.16-1.188.48-1.545.32-.358.772-.537 1.356-.537.598 0 1.057.179 1.377.537.333.357.5.872.5 1.545v6.78c0 .673-.16 1.188-.48 1.546-.32.358-.785.536-1.397.536Zm0-12.467c-.654 0-1.161-.158-1.523-.473-.348-.314-.521-.772-.521-1.373 0-.587.173-1.037.521-1.352.362-.315.87-.472 1.523-.472.681 0 1.196.157 1.544.472.347.315.521.765.521 1.352 0 .6-.174 1.059-.521 1.373-.348.315-.863.473-1.544.473Zm11.814 12.467c-.584 0-1.036-.178-1.356-.536-.32-.358-.48-.873-.48-1.545V9.275c0-.673.16-1.188.48-1.545.32-.358.772-.537 1.356-.537.598 0 1.057.179 1.377.537.333.357.5.872.5 1.545v6.78c0 .673-.16 1.188-.48 1.546-.319.358-.785.536-1.397.536Zm0-12.467c-.654 0-1.161-.158-1.523-.473-.348-.314-.522-.772-.522-1.373 0-.587.174-1.037.522-1.352.362-.315.869-.472 1.523-.472.681 0 1.196.157 1.543.472.348.315.522.765.522 1.352 0 .6-.174 1.059-.522 1.373-.347.315-.862.473-1.543.473Zm5.867 12.467c-.584 0-1.036-.164-1.356-.493-.32-.33-.48-.808-.48-1.438V9.103c0-.615.153-1.087.459-1.416.32-.33.772-.494 1.356-.494.584 0 1.029.165 1.335.494.306.329.459.8.459 1.416v1.009l-.23-.88a3.59 3.59 0 0 1 1.419-1.545c.626-.358 1.335-.537 2.128-.537.82 0 1.495.165 2.023.494.528.315.925.815 1.189 1.502.264.672.396 1.524.396 2.554v4.506c0 .63-.16 1.109-.479 1.438-.32.329-.779.493-1.377.493s-1.057-.164-1.377-.493c-.32-.33-.48-.808-.48-1.438V11.85c0-.644-.111-1.102-.333-1.374-.209-.271-.522-.407-.939-.407-.556 0-1.001.186-1.335.558-.334.357-.501.844-.501 1.459v4.12c0 1.288-.626 1.931-1.877 1.931Zm12.65 0c-.584 0-1.036-.164-1.356-.493-.319-.33-.479-.808-.479-1.438V4.554c0-.63.16-1.11.479-1.438.32-.33.772-.494 1.356-.494.598 0 1.057.165 1.377.494.334.329.501.808.501 1.438v7.081h.041l2.545-3.176c.348-.429.668-.744.96-.944.306-.215.716-.322 1.231-.322.514 0 .911.129 1.189.386.278.258.424.58.438.966.014.386-.139.773-.459 1.159l-2.754 3.348v-1.33l3.088 3.99c.306.401.431.794.375 1.18a1.33 1.33 0 0 1-.542.902c-.292.229-.668.343-1.127.343-.556 0-1.001-.1-1.335-.3-.333-.215-.667-.544-1.001-.987l-2.608-3.305h-.041v2.661c0 1.288-.626 1.931-1.878 1.931Zm-26.3-4.399V4.554c0-.63.16-1.11.48-1.438.32-.33.772-.494 1.356-.494.598 0 1.057.165 1.377.494.333.329.5.808.5 1.438v9.168l.007 2.334c0 .672-.16 1.187-.479 1.545-.32.358-.786.536-1.398.536-.584 0-1.036-.178-1.356-.536-.32-.358-.48-.873-.48-1.545l-.007-2.318Z" fill="#EF3254"/></svg>